# xmcd
#
# Track frame offsets:
# 150
# 15519
# 31939
# 48438
# 63694
# 82196
# 99441
# 117248
# 134376
# 150435
# 164591
# 181499
# 199674
# 216504
#
# Disc length: 3083 seconds
#
#
# Revision: 0
# Processed by: cddbd v1.5.1PL2 Copyright (c) Steve Scherf et al.
# Submitted via: FreeRIP 2.944 
#
DISCID=c30c090e
DTITLE=Roby e Roger - Nosso tempo
DYEAR=1900
DGENRE=Country
TTITLE0=Vou dormir na Rua
TTITLE1=Ponto de chegada
TTITLE2=Juliana
TTITLE3=Adeus para nunca mais
TTITLE4=coisa de peão
TTITLE5=quando tudo acabar
TTITLE6=uma homem jogado
TTITLE7=eu so quero pescar
TTITLE8=minha viola
TTITLE9=sangue matuto
TTITLE10=dois em um
TTITLE11=amor campeao
TTITLE12=perdoa
TTITLE13=sertanejão
EXTD=
EXTT0=
EXTT1=
EXTT2=
EXTT3=
EXTT4=
EXTT5=
EXTT6=
EXTT7=
EXTT8=
EXTT9=
EXTT10=
EXTT11=
EXTT12=
EXTT13=
PLAYORDER=
